<?xml version="1.0" encoding="utf-8"?>
<!-- Generator: Adobe Illustrator 21.0.2, SVG Export Plug-In . SVG Version: 6.00 Build 0)  -->
<svg version="1.1" id="layer" xmlns="http://www.w3.org/2000/svg" xmlns:xlink="http://www.w3.org/1999/xlink" x="0px" y="0px"
	 width="595.276px" height="334.97px" viewBox="0 0 595.276 334.97" style="enable-background:new 0 0 595.276 334.97;"
	 xml:space="preserve">
<style type="text/css">
	.st0{fill:#FFFFFF;}
	.st1{fill:#898989;}
	.st2{fill:#DCDDDD;}
	.st3{display:none;}
	.st4{display:inline;}
	.st5{fill:none;stroke:#000000;stroke-miterlimit:10;}
	.st6{display:inline;fill:#FFFFFF;stroke:#000000;stroke-miterlimit:10;}
	.st7{fill:#1D9C7A;stroke:#209576;stroke-width:0.5;stroke-miterlimit:10;}
</style>
<rect class="st0" width="595.276" height="334.97"/>
<g>
	<circle class="st1" cx="423.968" cy="45.85" r="31.698"/>
	<path class="st1" d="M392.269,129.973c0-21.547,17.467-39.013,39.013-39.013c21.547,0,39.013,17.467,39.013,39.013
		c0,0.461-0.019,0.918-0.035,1.375c0.015,0.227,0.035,0.452,0.035,0.683v98.295c0,5.826-4.766,10.592-10.592,10.592h-56.843
		c-5.826,0-10.592-4.766-10.592-10.592v-98.295c0-0.23,0.02-0.456,0.035-0.683C392.288,130.891,392.269,130.434,392.269,129.973z"/>
</g>
<g>
	<circle class="st1" cx="169.161" cy="45.85" r="31.698"/>
	<path class="st1" d="M200.86,129.973c0-21.547-17.467-39.013-39.013-39.013s-39.013,17.467-39.013,39.013
		c0,0.461,0.019,0.918,0.035,1.375c-0.015,0.227-0.035,0.452-0.035,0.683v98.295c0,5.826,4.766,10.592,10.592,10.592h56.843
		c5.826,0,10.592-4.766,10.592-10.592v-98.295c0-0.23-0.02-0.456-0.035-0.683C200.841,130.891,200.86,130.434,200.86,129.973z"/>
</g>
<g>
	<g>
		<path class="st2" d="M265.251,168.237c-0.862,0-1.7-0.246-2.423-0.712l-27.548-17.736c-2.086-1.343-2.691-4.133-1.348-6.22
			l9.278-14.41c0.83-1.289,2.249-2.059,3.796-2.059c0.862,0,1.7,0.246,2.423,0.712l27.548,17.736c2.086,1.343,2.69,4.134,1.347,6.22
			l-9.277,14.409C268.218,167.467,266.798,168.237,265.251,168.237z"/>
		<path d="M247.007,127.6L247.007,127.6c0.766,0,1.51,0.219,2.152,0.632l27.548,17.737c0.894,0.575,1.511,1.469,1.738,2.517
			s0.035,2.117-0.54,3.011l-9.277,14.409c-0.738,1.146-2,1.83-3.376,1.83c-0.766,0-1.51-0.219-2.152-0.632l-27.548-17.737
			c-0.894-0.575-1.511-1.469-1.738-2.518c-0.227-1.048-0.035-2.117,0.54-3.011l9.277-14.409
			C244.368,128.285,245.63,127.6,247.007,127.6 M247.007,126.6c-1.647,0-3.264,0.809-4.217,2.289l-9.277,14.409
			c-1.489,2.312-0.815,5.422,1.497,6.911l27.548,17.737c0.832,0.536,1.768,0.791,2.694,0.791c1.647,0,3.264-0.809,4.217-2.289
			l9.277-14.409c1.489-2.312,0.815-5.422-1.497-6.911L249.7,127.392C248.868,126.856,247.933,126.6,247.007,126.6L247.007,126.6z"/>
	</g>
	<g>
		<path class="st2" d="M330.028,168.671c-1.547,0-2.967-0.77-3.796-2.059l-9.278-14.409c-0.647-1.006-0.863-2.209-0.608-3.388
			s0.95-2.184,1.956-2.832l29.234-18.822c0.724-0.466,1.562-0.712,2.424-0.712c1.547,0,2.966,0.77,3.797,2.06l9.277,14.409
			c1.343,2.086,0.737,4.876-1.349,6.22l-29.234,18.822C331.727,168.424,330.889,168.671,330.028,168.671L330.028,168.671z"/>
		<path d="M349.959,126.948c1.376,0,2.638,0.684,3.376,1.83l9.277,14.409c0.575,0.894,0.767,1.963,0.54,3.011
			c-0.227,1.048-0.844,1.942-1.738,2.518l-29.235,18.822c-0.642,0.414-1.387,0.632-2.152,0.632c-1.376,0-2.638-0.684-3.376-1.83
			l-9.277-14.409c-1.194-1.854-0.657-4.335,1.198-5.529l29.235-18.822C348.449,127.167,349.193,126.948,349.959,126.948
			 M349.959,125.948c-0.926,0-1.862,0.256-2.694,0.791l-29.235,18.822c-2.312,1.489-2.986,4.599-1.497,6.911l9.277,14.409
			c0.953,1.48,2.57,2.289,4.217,2.289c0.926,0,1.862-0.256,2.694-0.791l29.235-18.822c2.312-1.489,2.986-4.599,1.497-6.911
			l-9.277-14.409C353.223,126.757,351.606,125.948,349.959,125.948L349.959,125.948z"/>
	</g>
	<g>
		<g class="st3">
			<g class="st4">
				<path class="st0" d="M288.082,176.111c-1.03-0.001-1.9-0.774-2.022-1.8l-1.553-13.036c-0.133-1.117,0.667-2.134,1.784-2.267
					l31.091-3.705c0.082-0.01,0.163-0.015,0.244-0.015c1.03,0,1.899,0.773,2.022,1.798l1.554,13.038
					c0.064,0.54-0.086,1.074-0.423,1.502c-0.337,0.429-0.821,0.7-1.362,0.765l-31.09,3.705
					C288.245,176.106,288.163,176.111,288.082,176.111C288.083,176.111,288.083,176.111,288.082,176.111z"/>
				<path d="M317.626,155.789c0.777,0,1.433,0.584,1.525,1.358l1.554,13.037c0.1,0.843-0.504,1.61-1.346,1.711l-31.091,3.705
					c-0.062,0.007-0.124,0.011-0.185,0.011c-0.777,0-1.433-0.584-1.525-1.358l-1.554-13.037c-0.049-0.408,0.065-0.811,0.319-1.134
					c0.254-0.323,0.619-0.528,1.028-0.577l31.091-3.705C317.503,155.792,317.565,155.789,317.626,155.789 M317.626,154.789
					c-0.1,0-0.202,0.006-0.304,0.018l-31.091,3.705c-1.393,0.166-2.387,1.429-2.221,2.822l1.554,13.037
					c0.154,1.291,1.25,2.239,2.518,2.239c0.1,0,0.202-0.006,0.304-0.018l31.091-3.705c1.393-0.166,2.387-1.429,2.221-2.822
					l-1.554-13.037C319.991,155.737,318.895,154.789,317.626,154.789L317.626,154.789z"/>
			</g>
			<g class="st4">
				<g>
					<path class="st0" d="M303.948,187.789c-0.391,0-0.771-0.113-1.102-0.325l-26.327-16.95c-0.945-0.608-1.219-1.873-0.611-2.818
						l7.108-11.04c0.377-0.585,1.019-0.936,1.717-0.936c0.391,0,0.771,0.112,1.102,0.325l26.326,16.949
						c0.945,0.609,1.219,1.874,0.61,2.82l-7.106,11.039C305.288,187.438,304.646,187.789,303.948,187.789z"/>
					<path d="M284.734,156.219L284.734,156.219c0.294,0,0.582,0.085,0.831,0.245l26.327,16.95c0.346,0.223,0.584,0.567,0.671,0.968
						c0.087,0.402,0.012,0.814-0.21,1.159l-7.108,11.039c-0.285,0.442-0.77,0.706-1.297,0.706c-0.294,0-0.582-0.085-0.831-0.245
						l-26.327-16.95c-0.346-0.223-0.584-0.567-0.671-0.968s-0.012-0.814,0.21-1.159l7.108-11.039
						C283.722,156.484,284.207,156.219,284.734,156.219 M284.734,155.219c-0.835,0-1.652,0.411-2.138,1.165l-7.108,11.039
						c-0.759,1.179-0.419,2.751,0.76,3.51l26.327,16.95c0.425,0.274,0.901,0.405,1.372,0.405c0.835,0,1.652-0.411,2.138-1.165
						l7.108-11.039c0.759-1.179,0.419-2.751-0.76-3.51l-26.327-16.95C285.681,155.35,285.205,155.219,284.734,155.219
						L284.734,155.219z"/>
				</g>
				<line class="st5" x1="299.548" y1="180.155" x2="306.701" y2="184.734"/>
				<line class="st5" x1="301.831" y1="176.589" x2="308.984" y2="181.168"/>
				<line class="st5" x1="304.044" y1="173.132" x2="311.197" y2="177.711"/>
			</g>
			<path class="st6" d="M289.507,158.435l-4.326,5.767c-0.463,0.617-0.43,1.424,0.074,1.801l1.464,1.098
				c0.504,0.378,1.287,0.184,1.75-0.433l4.326-5.767"/>
			<g class="st4">
				<path class="st0" d="M280.843,179.236c-0.032,0-0.08-0.008-0.128-0.041l-2.653-1.839c-0.103-0.071-0.128-0.213-0.057-0.316
					l4.637-6.688c0.043-0.063,0.111-0.099,0.187-0.099c0.032,0,0.081,0.008,0.129,0.041l2.653,1.839
					c0.103,0.071,0.128,0.213,0.057,0.316l-4.637,6.688C280.987,179.2,280.919,179.236,280.843,179.236z"/>
				<path d="M282.896,170.86l2.204,1.528l-4.325,6.24l-2.204-1.528L282.896,170.86 M282.828,169.753
					c-0.23,0-0.457,0.109-0.598,0.313l-4.636,6.69c-0.229,0.33-0.147,0.783,0.183,1.011l2.653,1.839
					c0.126,0.087,0.271,0.129,0.413,0.129c0.23,0,0.457-0.109,0.598-0.313l4.637-6.69c0.229-0.33,0.147-0.783-0.183-1.011
					l-2.653-1.839C283.115,169.795,282.971,169.753,282.828,169.753L282.828,169.753z"/>
			</g>
			<g class="st4">
				<path class="st0" d="M284.731,181.93c-0.032,0-0.08-0.008-0.128-0.041l-2.653-1.839c-0.067-0.047-0.088-0.111-0.094-0.146
					c-0.006-0.035-0.01-0.104,0.037-0.171l4.637-6.688c0.043-0.063,0.111-0.099,0.187-0.099c0.032,0,0.081,0.008,0.129,0.041
					l2.653,1.839c0.102,0.071,0.128,0.213,0.057,0.315l-4.637,6.689C284.875,181.894,284.807,181.93,284.731,181.93z"/>
				<path d="M286.784,173.555l2.204,1.528l-4.325,6.24l-2.204-1.528L286.784,173.555 M286.715,172.448
					c-0.23,0-0.457,0.109-0.598,0.313l-4.637,6.69c-0.229,0.33-0.147,0.783,0.183,1.011l2.653,1.839
					c0.126,0.087,0.271,0.129,0.413,0.129c0.23,0,0.457-0.109,0.598-0.313l4.637-6.69c0.229-0.33,0.147-0.783-0.183-1.011
					l-2.653-1.839C287.002,172.49,286.858,172.448,286.715,172.448L286.715,172.448z"/>
			</g>
			<g class="st4">
				<path class="st0" d="M289.008,184.894c-0.032,0-0.081-0.008-0.129-0.041l-2.653-1.839c-0.103-0.071-0.128-0.213-0.057-0.316
					l4.636-6.688c0.043-0.063,0.111-0.099,0.187-0.099c0.032,0,0.08,0.008,0.128,0.041l2.654,1.84
					c0.102,0.071,0.128,0.212,0.057,0.315l-4.637,6.688C289.151,184.858,289.083,184.894,289.008,184.894z"/>
				<path d="M291.06,176.519l2.204,1.528l-4.325,6.24l-2.204-1.528L291.06,176.519 M290.992,175.412
					c-0.23,0-0.457,0.109-0.598,0.313l-4.637,6.69c-0.229,0.33-0.147,0.783,0.183,1.011l2.653,1.839
					c0.126,0.087,0.271,0.129,0.413,0.129c0.23,0,0.457-0.109,0.598-0.313l4.637-6.69c0.229-0.33,0.147-0.783-0.183-1.011
					l-2.653-1.839C291.279,175.454,291.135,175.412,290.992,175.412L290.992,175.412z"/>
			</g>
			<g class="st4">
				<path class="st0" d="M293.349,187.903c-0.032,0-0.081-0.008-0.129-0.041l-2.653-1.839c-0.067-0.046-0.087-0.111-0.094-0.146
					c-0.006-0.035-0.01-0.103,0.037-0.17l4.637-6.689c0.043-0.063,0.111-0.098,0.187-0.098c0.032,0,0.08,0.007,0.128,0.04
					l2.654,1.84c0.067,0.047,0.088,0.111,0.094,0.146c0.006,0.034,0.01,0.103-0.037,0.17l-4.637,6.688
					C293.493,187.867,293.425,187.903,293.349,187.903z"/>
				<path d="M295.402,179.528l2.204,1.528l-4.325,6.24l-2.204-1.528L295.402,179.528 M295.333,178.421
					c-0.23,0-0.457,0.109-0.598,0.313l-4.637,6.69c-0.229,0.33-0.147,0.783,0.183,1.011l2.653,1.839
					c0.126,0.087,0.271,0.129,0.413,0.129c0.23,0,0.457-0.109,0.598-0.313l4.637-6.69c0.229-0.33,0.147-0.783-0.183-1.011
					l-2.653-1.839C295.62,178.463,295.476,178.421,295.333,178.421L295.333,178.421z"/>
			</g>
		</g>
		<g>
			<g>
				<path class="st0" d="M302.931,189.712c-0.572,0-1.109-0.429-1.367-0.635l-1.83-1.447c-2.81-2.22-8.038-6.352-8.722-6.919
					c-1.611-1.338-2.54-1.959-3.359-2.507c-0.938-0.627-1.747-1.168-3.344-2.605c-0.301-0.271-0.608-0.554-0.935-0.855
					c-0.958-0.884-2.15-1.982-3.858-3.374c-1.091-0.888-2.561-2.023-3.379-2.638l8.502-13.206c1.838,0.564,4.944,1.884,7.872,3.352
					c2.041,1.023,2.983,1.738,4.693,3.037c1.271,0.965,3.012,2.287,5.946,4.278c1.259,0.854,2.51,1.771,3.719,2.658
					c1.227,0.898,2.495,1.829,3.778,2.698c1.406,0.953,4.543,3.079,4.547,4.897c0.002,0.828-0.406,1.344-0.41,1.349
					c-0.372,0.447-0.913,0.592-1.203,0.639l-1.126-0.278c-4.27-3.18-6.498-4.853-7.569-5.669l-0.465,0.589
					c1.297,1.06,3.704,3.069,4.845,4.028c2.415,2.031,3.189,2.766,3.12,3.691c-0.072,0.972-1.015,1.972-2.017,2.141
					c-0.087,0.016-0.172,0.023-0.256,0.023c-0.748,0-1.537-0.633-3.709-2.461c-1-0.842-1.928-1.628-2.725-2.304
					c-2.816-2.387-2.816-2.387-3.009-2.387h-0.388l0.013,0.388c0.006,0.181,0.006,0.181,2.301,2.17
					c1.625,1.409,3.648,3.163,4.21,3.688c1.378,1.29,2.04,1.937,2.052,2.514c0.021,1.088-1.592,1.938-1.775,2.03
					c-0.007,0.003-0.496,0.246-1.036,0.29h-0.001c-0.493,0-1.35-0.651-1.78-1.062c-1.357-1.286-2.957-2.471-3.024-2.521
					c-3.694-2.761-3.824-2.761-3.939-2.761h-0.431l0.059,0.427c0.023,0.163,0.023,0.163,0.744,0.697
					c1.438,1.065,5.261,3.896,6.034,4.906c0.67,0.876,0.735,1.293,0.706,1.613c-0.065,0.697-0.651,1.386-1.279,1.505
					C303.066,189.706,302.997,189.712,302.931,189.712z"/>
				<path d="M284.798,155.969c1.843,0.598,4.771,1.854,7.544,3.243c2.01,1.008,2.943,1.716,4.635,3.001
					c1.274,0.968,3.02,2.293,5.962,4.289c1.255,0.852,2.504,1.768,3.713,2.654c1.227,0.9,2.497,1.831,3.784,2.703l0.064,0.043
					c1.18,0.8,4.316,2.924,4.319,4.544c0.001,0.683-0.316,1.097-0.322,1.106c-0.262,0.315-0.644,0.441-0.897,0.494l-0.373-0.09
					l-0.61-0.148c-3.771-2.808-6.297-4.701-7.491-5.61c-0.973-0.795-1.043-0.852-1.304-0.852c-0.015,0-0.03,0-0.046,0l-0.372,0.005
					l-0.221,0.299c-0.449,0.609-0.051,0.912,0.994,1.708c1.254,1.025,3.62,2.999,4.846,4.03c2.258,1.899,3.044,2.63,2.988,3.377
					c-0.06,0.801-0.873,1.659-1.705,1.8c-0.065,0.011-0.129,0.017-0.193,0.017c-0.624,0-1.514-0.727-3.468-2.372
					c-1.001-0.842-1.929-1.629-2.726-2.305c-2.918-2.473-2.918-2.473-3.249-2.474l-0.33,0.001l-0.223,0.241l-0.214,0.232
					l0.016,0.315c0.017,0.334,0.017,0.334,2.364,2.369c1.562,1.354,3.702,3.209,4.266,3.737c1.118,1.047,1.925,1.803,1.934,2.247
					c0.014,0.701-1.021,1.412-1.569,1.688c-0.004,0.002-0.435,0.213-0.899,0.252c-0.255,0-0.953-0.449-1.493-0.961
					c-1.391-1.317-3.056-2.547-3.055-2.547c0,0,0,0,0,0c-3.795-2.837-3.888-2.837-4.165-2.837l-0.382,0l-0.225,0.308
					c-0.442,0.606,0.032,0.957,0.75,1.489c1.292,0.956,5.223,3.866,5.966,4.837c0.673,0.88,0.644,1.198,0.63,1.35
					c-0.049,0.526-0.513,1.084-0.975,1.171c-0.045,0.009-0.09,0.012-0.134,0.012c-0.439,0-0.907-0.372-1.134-0.553
					c-0.191-0.152-0.911-0.721-1.893-1.497c-2.788-2.203-7.976-6.303-8.652-6.864c-1.626-1.35-2.564-1.977-3.391-2.53
					c-0.925-0.619-1.724-1.153-3.302-2.573c-0.297-0.267-0.6-0.547-0.923-0.845c-0.963-0.888-2.162-1.994-3.884-3.396
					c-0.981-0.799-2.265-1.795-3.113-2.437l4.044-6.281L284.798,155.969 M284.474,155.086c-2.948,4.579-5.896,9.158-8.844,13.736
					c0.692,0.511,2.406,1.827,3.648,2.838c2.269,1.847,3.577,3.135,4.779,4.217c3.047,2.743,3.313,2.297,6.715,5.122
					c0.916,0.761,9.807,7.774,10.557,8.371c0.288,0.229,0.898,0.716,1.601,0.716c0.09,0,0.181-0.008,0.273-0.025
					c0.799-0.15,1.504-0.978,1.583-1.838c0.041-0.447-0.081-0.959-0.781-1.875c-1.008-1.317-6.722-5.405-6.706-5.428
					c0,0,0.001,0,0.001,0c0.056,0,2.165,1.528,3.716,2.688c0,0,1.633,1.206,2.988,2.49c0.04,0.038,1.231,1.167,2.009,1.167
					c0.021,0,0.042-0.001,0.062-0.003c0.625-0.052,1.171-0.328,1.171-0.328c0.127-0.064,2.01-1.011,1.983-2.374
					c-0.014-0.745-0.733-1.434-2.171-2.78c-0.986-0.924-6.412-5.577-6.393-5.597c0,0,0.001-0.001,0.002-0.001
					c0.082,0,2.451,2.042,5.492,4.602c2.205,1.856,3.058,2.549,3.951,2.549c0.105,0,0.21-0.009,0.318-0.028
					c1.153-0.195,2.242-1.331,2.328-2.483c0.085-1.134-0.833-1.971-3.253-4.007c-1.143-0.961-3.558-2.977-4.854-4.036
					c-0.649-0.495-0.871-0.674-0.865-0.682c0,0,0,0,0.001,0c0.02,0,0.356,0.268,0.864,0.683c1.074,0.819,3.32,2.505,7.64,5.722
					c0.428,0.104,0.855,0.207,1.283,0.311h0c0.033-0.004,0.065-0.009,0.065-0.009c0.244-0.038,0.947-0.186,1.433-0.771
					c0,0,0.497-0.598,0.495-1.587c-0.004-2.046-3.259-4.222-4.712-5.206c-2.542-1.723-4.955-3.632-7.496-5.357
					c-6.766-4.591-7.031-5.51-10.682-7.34C289.656,157.027,286.319,155.612,284.474,155.086L284.474,155.086z"/>
			</g>
			<g>
				<g>
					<path class="st0" d="M288.126,185.276c-0.863,0-1.812-0.607-1.99-1.273c-0.095-0.356,0.043-0.694,0.126-0.896
						c1.341-3.273,3.107-5.212,3.125-5.231c1.437-1.554,2.228-2.41,2.979-2.41l0.104,0.005c0.911,0.086,1.832,1.013,1.97,1.983
						c0.09,0.639-0.216,1.046-1.681,2.865l-0.627,0.78c-0.482,0.604-0.893,1.127-1.25,1.58c-1.676,2.133-2.055,2.585-2.728,2.597
						H288.126z"/>
					<path d="M292.367,175.841c0.023,0,0.045,0.001,0.068,0.003c0.741,0.07,1.52,0.862,1.634,1.663
						c0.066,0.465-0.16,0.786-1.602,2.577l-0.628,0.782c-0.483,0.604-0.895,1.128-1.251,1.582c-1.63,2.075-1.959,2.445-2.461,2.453
						c-0.675,0-1.496-0.502-1.628-0.995c-0.058-0.216,0.023-0.443,0.11-0.657c1.312-3.202,3.037-5.1,3.055-5.119l0,0
						C290.983,176.703,291.779,175.841,292.367,175.841 M292.367,175.091c-0.916,0-1.72,0.87-3.255,2.531
						c0,0-1.811,1.96-3.197,5.342c-0.102,0.249-0.266,0.667-0.141,1.135c0.234,0.875,1.381,1.552,2.352,1.552
						c0.012,0,0.024,0,0.035,0c1.058-0.018,1.49-0.847,4.263-4.317c1.979-2.476,2.518-3.005,2.386-3.933
						c-0.159-1.118-1.206-2.201-2.306-2.304C292.459,175.093,292.413,175.091,292.367,175.091L292.367,175.091z"/>
				</g>
				<g>
					<path class="st0" d="M284.078,182.637c-0.84,0-1.469-0.427-1.475-0.431c-0.413-0.275-0.682-0.662-0.788-0.911
						c-0.304-0.714,0.274-1.577,1.73-3.636c0.332-0.471,0.704-0.996,1.111-1.59c0.386-0.562,0.719-1.061,1.013-1.501
						c1.309-1.962,1.759-2.584,2.512-2.617c0.002,0,0.004,0,0.006,0c0.506,0,1.218,0.175,1.798,0.666
						c0.22,0.186,0.631,0.623,0.781,1.082c0.257,0.789-0.353,1.592-1.691,3.35c-0.366,0.481-0.782,1.028-1.246,1.661
						c-0.404,0.552-0.75,1.04-1.053,1.47c-1.193,1.686-1.687,2.384-2.51,2.449C284.203,182.634,284.14,182.637,284.078,182.637z"/>
					<path d="M288.253,172.325c0.372,0,0.985,0.152,1.49,0.579c0.176,0.149,0.543,0.532,0.667,0.912
						c0.189,0.579-0.332,1.297-1.635,3.009c-0.367,0.482-0.784,1.03-1.248,1.664c-0.406,0.554-0.753,1.045-1.058,1.476
						c-1.204,1.701-1.614,2.242-2.233,2.291c-0.055,0.004-0.108,0.006-0.161,0.006c-0.706,0-1.26-0.363-1.27-0.37
						c-0.318-0.212-0.553-0.526-0.646-0.743c-0.225-0.527,0.356-1.384,1.691-3.271c0.333-0.471,0.706-0.999,1.115-1.594
						c0.387-0.564,0.721-1.064,1.016-1.506c1.229-1.841,1.645-2.425,2.216-2.451L288.253,172.325 M288.253,171.575
						c-0.03,0-0.059,0.001-0.088,0.002c-1.199,0.053-1.724,1.234-3.817,4.281c-2.209,3.217-3.366,4.439-2.878,5.584
						c0.146,0.342,0.473,0.775,0.92,1.073c0,0,0.721,0.496,1.686,0.496c0.072,0,0.146-0.003,0.221-0.009
						c1.241-0.099,1.776-1.258,3.836-4.071c2.25-3.074,3.391-4.121,2.99-5.348c-0.218-0.669-0.832-1.198-0.895-1.252
						C289.597,171.797,288.812,171.575,288.253,171.575L288.253,171.575z"/>
				</g>
				<g>
					<path class="st0" d="M280.516,179.18c-0.817-0.001-1.353-0.395-1.358-0.398c-0.001-0.001-0.24-0.188-0.379-0.404
						c-0.541-0.841,0.94-3.13,2.022-4.801c0.172-0.265,1.101-1.641,2.474-2.714c0.324-0.253,0.711-0.556,1.051-0.556
						c0.058,0,0.112,0.009,0.166,0.027c0.381,0.129,0.682,0.38,0.685,0.383l0,0c0,0,0.493,0.445,0.693,1.128
						c0.078,0.264,0.181,1.333-1.734,4.019c-0.998,1.399-2.365,3.316-3.617,3.316H280.516z"/>
					<path d="M284.325,170.683l0.047,0.007c0.301,0.102,0.548,0.302,0.549,0.302l0,0c0.016,0.014,0.424,0.394,0.589,0.959
						c0.028,0.097,0.223,1.028-1.679,3.696c-0.897,1.258-2.254,3.159-3.314,3.159c-0.676-0.001-1.126-0.319-1.127-0.319c0,0,0,0,0,0
						c-0.05-0.039-0.21-0.179-0.295-0.311c-0.41-0.638,1.171-3.082,2.021-4.394c0.101-0.156,1.028-1.557,2.402-2.632
						C283.755,170.963,284.114,170.683,284.325,170.683 M284.325,169.933c-0.475,0-0.929,0.36-1.281,0.635
						c-1.471,1.15-2.442,2.627-2.558,2.806c-1.333,2.06-2.681,4.183-2.022,5.208c0.178,0.277,0.467,0.499,0.467,0.499
						c0,0,0.619,0.475,1.585,0.476c0.001,0,0.002,0,0.003,0c1.416,0,2.76-1.844,3.923-3.474c2.116-2.967,1.869-4.067,1.789-4.342
						c-0.235-0.804-0.81-1.309-0.81-1.309s-0.347-0.297-0.807-0.452C284.515,169.947,284.42,169.933,284.325,169.933
						L284.325,169.933z"/>
				</g>
				<g>
					<path class="st0" d="M291.784,187.974c-0.042,0-0.08-0.005-0.118-0.011c-0.362-0.056-0.74-0.291-0.972-0.492
						c-0.57-0.498-0.716-1.158-0.748-1.349c-0.134-0.828,0.668-1.838,2.352-3.863c0.692-0.832,1.302-1.472,2.201-2.093
						c0.681-0.471,1.027-0.696,1.447-0.696c0.982,0.047,1.943,1.064,1.9,1.946c-0.014,0.288-0.139,0.499-0.206,0.613
						c-1.307,2.215-3.019,3.864-3.036,3.88C292.691,187.739,292.092,187.974,291.784,187.974L291.784,187.974z"/>
					<path d="M295.947,179.845l0.044,0.001c0.77,0.038,1.511,0.935,1.48,1.552c-0.01,0.195-0.1,0.349-0.155,0.441
						c-1.278,2.167-2.955,3.784-2.972,3.8c-1.784,1.705-2.37,1.959-2.561,1.959c-0.021,0-0.041-0.003-0.061-0.006
						c-0.286-0.044-0.6-0.245-0.781-0.404c-0.478-0.417-0.599-0.968-0.625-1.127c-0.108-0.666,0.704-1.68,2.269-3.564
						c0.671-0.807,1.26-1.427,2.126-2.024C295.375,180.018,295.654,179.845,295.947,179.845 M295.947,179.095
						c-0.543,0-0.958,0.278-1.661,0.763c-0.988,0.682-1.645,1.402-2.277,2.162c-1.734,2.086-2.598,3.15-2.433,4.163
						c0.067,0.412,0.299,1.071,0.872,1.571c0.077,0.068,0.57,0.489,1.16,0.58c0.056,0.009,0.113,0.014,0.175,0.014
						c0.457,0,1.145-0.318,3.08-2.167c0,0,1.749-1.671,3.099-3.961c0.083-0.141,0.24-0.413,0.258-0.786
						c0.052-1.06-1.044-2.28-2.192-2.337C296.001,179.096,295.974,179.095,295.947,179.095L295.947,179.095z"/>
				</g>
				<g>
					<path class="st0" d="M315.731,173.588c-1.497,0-2.731-0.743-3.47-1.187c-4.405-2.648-8.75-6.09-9.231-6.474l-0.092-0.073
						c-2.52-2.005-4.184-3.33-5.559-3.33c-0.283,0-0.554,0.056-0.806,0.167c-0.236,0.104-0.323,0.2-0.534,0.433
						c-0.178,0.197-0.48,0.531-1.108,1.142c-2.014,1.961-2.61,2.132-3.048,2.14c0,0,0,0-0.001,0c-0.633,0-1.109-0.273-1.129-0.285
						c-0.263-0.154-0.455-0.334-0.585-0.549c-0.28-0.462-0.31-1.074-0.091-1.926c0.396-1.549,4.085-5.227,5.004-5.704
						c0.776-0.403,1.225-0.435,4.146-0.647c0,0,2.741-0.204,3.533-0.265c2.185-0.168,3.182-0.245,4.25-0.245
						c0.359,0,0.726,0.009,1.141,0.026l0.148,0.003c0.467,0,1.073-0.079,1.716-0.164c0.672-0.088,1.367-0.179,1.912-0.179
						c0.067,0,0.133,0.001,0.195,0.004l9.122,14.168c-0.507,0.49-1.746,1.465-2.479,1.986c-0.25,0.179-1.172,0.774-2.526,0.928
						C316.066,173.578,315.897,173.588,315.731,173.588z"/>
					<path d="M311.914,156.847l5.082,7.894l3.761,5.842c-0.546,0.483-1.531,1.26-2.21,1.744c-0.479,0.341-1.348,0.746-2.351,0.86
						c-0.159,0.018-0.314,0.026-0.467,0.026c-1.392,0-2.571-0.709-3.275-1.132c-4.337-2.608-8.707-6.061-9.191-6.446l-0.092-0.074
						c-2.673-2.127-4.286-3.411-5.791-3.411c-0.335,0-0.657,0.067-0.957,0.199c-0.309,0.136-0.442,0.282-0.661,0.525
						c-0.176,0.195-0.471,0.521-1.091,1.124c-1.825,1.776-2.421,2.027-2.822,2.034c-0.495,0-0.9-0.231-0.907-0.235
						c-0.207-0.121-0.356-0.258-0.453-0.419c-0.141-0.233-0.3-0.656-0.048-1.638c0.354-1.385,3.872-4.976,4.814-5.465
						c0.684-0.355,1.032-0.39,3.991-0.606l0.654-0.048c1.155-0.085,2.1-0.157,2.893-0.218c2.173-0.167,3.165-0.243,4.218-0.243
						c0.355,0,0.715,0.009,1.125,0.026c0.052,0.002,0.107,0.003,0.164,0.003c0.491,0,1.11-0.081,1.764-0.167
						C310.717,156.937,311.394,156.848,311.914,156.847 M311.926,156.097c-1.094,0-2.705,0.343-3.628,0.343
						c-0.046,0-0.09-0.001-0.133-0.003c-0.421-0.018-0.792-0.027-1.157-0.027c-1.479,0-2.863,0.148-7.166,0.463
						c-3.516,0.258-4.032,0.267-4.935,0.736c-1.029,0.534-4.767,4.273-5.195,5.944c-0.234,0.913-0.217,1.634,0.134,2.213
						c0.156,0.257,0.387,0.486,0.716,0.678c0,0,0.56,0.337,1.285,0.337c0.014,0,0.028,0,0.042,0c0.582-0.01,1.261-0.258,3.303-2.247
						c1.33-1.295,1.22-1.363,1.531-1.5c0.208-0.091,0.425-0.135,0.655-0.135c1.259,0,2.895,1.314,5.417,3.321
						c0.46,0.366,4.857,3.847,9.272,6.502c0.847,0.509,2.113,1.24,3.662,1.24c0.18,0,0.364-0.01,0.551-0.031
						c1.16-0.131,2.139-0.593,2.702-0.994c0.802-0.572,2.397-1.821,2.734-2.251c-3.127-4.856-6.253-9.713-9.38-14.569
						C312.211,156.103,312.073,156.097,311.926,156.097L311.926,156.097z"/>
				</g>
			</g>
		</g>
		<g>
			<path class="st1" d="M271.293,172.735c-0.833,0-1.645-0.238-2.344-0.688c-2.019-1.301-2.604-4.001-1.304-6.02l9.963-15.474
				c0.803-1.248,2.177-1.993,3.674-1.993c0.834,0,1.645,0.238,2.345,0.689c0.974,0.627,1.646,1.6,1.893,2.74
				c0.247,1.141,0.038,2.305-0.589,3.278l-9.962,15.474C274.164,171.99,272.79,172.735,271.293,172.735z"/>
			<path d="M281.281,149.061L281.281,149.061c0.738,0,1.455,0.211,2.074,0.609c0.861,0.554,1.456,1.416,1.675,2.426
				c0.219,1.01,0.034,2.04-0.52,2.902l-9.963,15.473c-0.711,1.104-1.927,1.764-3.254,1.764c-0.738,0-1.455-0.211-2.074-0.609
				c-0.861-0.554-1.456-1.416-1.675-2.426c-0.219-1.01-0.034-2.04,0.52-2.902l9.963-15.473
				C278.738,149.72,279.955,149.061,281.281,149.061 M281.281,148.061c-1.599,0-3.169,0.785-4.094,2.222l-9.963,15.474
				c-1.445,2.245-0.791,5.264,1.454,6.71v0c0.808,0.52,1.716,0.768,2.615,0.768c1.599,0,3.169-0.785,4.094-2.222l9.963-15.474
				c1.445-2.245,0.791-5.264-1.454-6.71C283.088,148.309,282.18,148.061,281.281,148.061L281.281,148.061z"/>
		</g>
		<g>
			<path class="st1" d="M324.66,172.735c-1.497,0-2.871-0.745-3.674-1.993l-9.964-15.474c-0.626-0.974-0.835-2.138-0.588-3.278
				c0.247-1.14,0.919-2.113,1.893-2.74c0.7-0.451,1.511-0.689,2.345-0.689c1.497,0,2.87,0.745,3.673,1.993l9.964,15.474
				c1.299,2.019,0.714,4.719-1.305,6.02C326.303,172.497,325.494,172.735,324.66,172.735L324.66,172.735z"/>
			<path d="M314.671,149.061c1.326,0,2.543,0.659,3.254,1.764l9.963,15.474c0.554,0.861,0.739,1.892,0.52,2.902
				s-0.814,1.872-1.675,2.426c-0.619,0.399-1.336,0.609-2.074,0.609c-1.326,0-2.543-0.659-3.254-1.764l-9.963-15.474
				c-0.554-0.861-0.739-1.892-0.52-2.902s0.814-1.871,1.675-2.426C313.216,149.271,313.933,149.061,314.671,149.061
				 M314.671,148.061c-0.899,0-1.807,0.248-2.615,0.768c-2.245,1.445-2.899,4.465-1.454,6.71l9.963,15.474
				c0.925,1.437,2.495,2.222,4.094,2.222c0.899,0,1.807-0.248,2.615-0.768v0c2.245-1.445,2.899-4.465,1.454-6.71l-9.963-15.474
				C317.84,148.846,316.27,148.061,314.671,148.061L314.671,148.061z"/>
		</g>
	</g>
</g>
<g>
	<path class="st7" d="M92.158,261.481c4.468,0,7.97,2.496,10.508,7.488c2.433,4.803,3.649,11.295,3.649,19.475
		c0,7.845-1.101,14.169-3.303,18.972c-2.517,5.537-6.177,8.306-10.98,8.306c-4.656,0-8.243-2.705-10.76-8.117
		c-2.245-4.824-3.367-11.189-3.367-19.098c0-8.473,1.279-15.111,3.838-19.915C84.261,263.851,87.732,261.481,92.158,261.481z
		 M92.032,266.326c-2.37,0-4.31,1.689-5.82,5.065c-1.804,4.007-2.706,9.712-2.706,17.115c0,6.775,0.765,12.145,2.296,16.109
		c1.531,4.006,3.618,6.009,6.261,6.009c2.538,0,4.562-1.782,6.072-5.349c1.719-3.984,2.58-9.564,2.58-16.737
		c0-7.887-1.007-13.822-3.02-17.808C96.185,267.795,94.297,266.326,92.032,266.326z"/>
	<path class="st7" d="M110.849,262.488h9.596c4.405,0,7.823,1.144,10.257,3.43c3.041,2.853,4.562,6.9,4.562,12.144
		c0,6.188-1.479,10.551-4.436,13.089c-2.601,2.244-6.041,3.366-10.32,3.366h-4.31v20.167h-5.349V262.488z M116.197,267.27v22.526
		h3.933c3.44,0,5.957-1.048,7.551-3.146c1.322-1.783,1.982-4.636,1.982-8.558c0-7.216-3.031-10.823-9.093-10.823H116.197z"/>
	<path class="st7" d="M140.865,262.488h21.646v4.908h-16.36v18.027h14.441v4.846h-14.441v19.38h17.021v5.034h-22.307V262.488z"/>
	<path class="st7" d="M168.051,262.488h6.45l10.037,26.082c1.342,3.503,2.915,8.547,4.719,15.133l0.314,1.07h0.252
		c-0.483-8.348-0.766-16.34-0.85-23.975l-0.189-18.311h5.223v52.195h-4.751l-11.483-29.763c-0.923-2.392-2.56-7.414-4.908-15.07
		l-0.44-1.447h-0.315c0.566,6.9,0.892,14.336,0.976,22.307l0.251,23.974h-5.286V262.488z"/>
	<path class="st7" d="M213.814,262.488h8.841c4.551,0,8.463,1.405,11.735,4.216c5.013,4.3,7.519,11.589,7.519,21.866
		c0,9.711-2.255,16.895-6.764,21.552c-2.958,3.041-7.216,4.562-12.773,4.562h-8.558V262.488z M219.099,267.396v42.316h3.996
		c3.67,0,6.586-1.374,8.746-4.122c3.021-3.838,4.531-9.512,4.531-17.021c0-7.635-1.573-13.382-4.719-17.241
		c-2.119-2.622-4.888-3.933-8.306-3.933H219.099z"/>
	<path class="st7" d="M254.276,262.205h5.6l12.333,52.479h-5.757l-3.146-14.378h-12.428l-3.178,14.378h-5.726L254.276,262.205z
		 M262.456,295.523l-3.461-17.021l-0.157-0.66c-0.797-3.964-1.353-7.152-1.667-9.564h-0.251c-0.315,2.685-0.766,5.454-1.353,8.306
		c-0.105,0.546-0.231,1.186-0.377,1.919l-3.493,17.021H262.456z"/>
	<path class="st7" d="M272.652,262.488h28.127v5.034h-11.39v47.161h-5.349v-47.161h-11.389V262.488z"/>
	<path class="st7" d="M313.555,262.205h5.6l12.334,52.479h-5.758l-3.146-14.378h-12.428l-3.178,14.378h-5.726L313.555,262.205z
		 M321.735,295.523l-3.461-17.021l-0.157-0.66c-0.797-3.964-1.353-7.152-1.667-9.564h-0.252c-0.314,2.685-0.766,5.454-1.353,8.306
		c-0.105,0.546-0.231,1.186-0.378,1.919l-3.492,17.021H321.735z"/>
	<path class="st7" d="M345.323,262.488h10.76c3.125,0,5.747,0.672,7.865,2.014c3.565,2.224,5.349,5.862,5.349,10.917
		c0,6.293-2.748,10.278-8.243,11.956v0.251c6.355,1.931,9.533,6.229,9.533,12.899c0,5.538-1.846,9.533-5.537,11.987
		c-2.202,1.447-4.804,2.171-7.803,2.171h-11.924V262.488z M350.356,267.049v18.186h5.349c2.056,0,3.839-0.618,5.349-1.856
		c1.846-1.552,2.769-4.09,2.769-7.613c0-3.063-0.817-5.359-2.454-6.891c-1.258-1.216-3.041-1.825-5.349-1.825H350.356z
		 M350.356,289.765v20.293h6.513c2.434,0,4.395-0.85,5.884-2.548c1.447-1.678,2.171-4.091,2.171-7.236
		c0-4.048-1.248-6.985-3.744-8.81c-1.573-1.133-3.419-1.699-5.537-1.699H350.356z"/>
	<path class="st7" d="M375.151,262.488h10.634c3.545,0,6.439,0.902,8.684,2.706c3.188,2.559,4.782,6.303,4.782,11.231
		c0,7.53-3.355,12.008-10.067,13.435v0.283c2.58,1.217,4.614,3.576,6.104,7.079c1.174,2.789,3.271,8.61,6.292,17.461h-6.261
		c-2.769-9.921-4.793-16.046-6.072-18.374c-1.573-2.831-3.44-4.247-5.6-4.247h-3.21v22.621h-5.285V262.488z M380.436,267.144v20.419
		h4.059c2.748,0,5.023-1.018,6.828-3.052c1.594-1.762,2.391-4.384,2.391-7.865c0-3.063-0.703-5.443-2.107-7.143
		c-1.343-1.572-3.304-2.359-5.884-2.359H380.436z"/>
	<path class="st7" d="M406.209,262.488h16.171v4.499h-5.411v43.197h5.411v4.499h-16.171v-4.499h5.411v-43.197h-5.411V262.488z"/>
	<path class="st7" d="M429.022,262.488h8.841c4.552,0,8.464,1.405,11.735,4.216c5.013,4.3,7.52,11.589,7.52,21.866
		c0,9.711-2.255,16.895-6.764,21.552c-2.958,3.041-7.216,4.562-12.774,4.562h-8.558V262.488z M434.308,267.396v42.316h3.995
		c3.671,0,6.586-1.374,8.747-4.122c3.021-3.838,4.53-9.512,4.53-17.021c0-7.635-1.573-13.382-4.72-17.241
		c-2.118-2.622-4.887-3.933-8.306-3.933H434.308z"/>
	<path class="st7" d="M483.294,314.966l-0.724-6.387c-1.678,4.72-4.667,7.079-8.966,7.079c-4.468,0-7.992-2.56-10.571-7.677
		c-2.266-4.488-3.398-10.844-3.398-19.066c0-7.467,1.111-13.602,3.335-18.405c2.789-6.04,6.848-9.061,12.176-9.061
		c4.174,0,7.918,2.107,11.232,6.323l-3.398,3.808c-2.098-3.355-4.719-5.034-7.865-5.034c-2.957,0-5.233,1.657-6.827,4.971
		c-1.993,4.175-2.989,10.068-2.989,17.682c0,7.006,0.692,12.061,2.077,15.165c1.824,4.09,3.995,6.135,6.513,6.135
		c2.391,0,4.341-1.164,5.852-3.492c0.881-1.342,1.499-2.485,1.856-3.43c0.482-1.342,0.724-2.254,0.724-2.736v-6.891h-8.117v-4.72
		h13.276v25.736H483.294z"/>
	<path class="st7" d="M492.673,262.488h21.646v4.908h-16.36v18.027H512.4v4.846h-14.441v19.38h17.021v5.034h-22.307V262.488z"/>
</g>
</svg>
